<?xml version="1.0" standalone="no"?>
<!DOCTYPE svg PUBLIC "-//W3C//DTD SVG 20010904//EN"
 "http://www.w3.org/TR/2001/REC-SVG-20010904/DTD/svg10.dtd">
<svg version="1.0" xmlns="http://www.w3.org/2000/svg"
 width="214.000000pt" height="128.000000pt" viewBox="0 0 214.000000 128.000000"
 preserveAspectRatio="xMidYMid meet">

<g transform="translate(0.000000,128.000000) scale(0.100000,-0.100000)"
fill="#000000" stroke="none">
<path d="M385 1041 c-95 -25 -164 -81 -207 -169 -29 -58 -33 -77 -33 -142 0
-93 26 -155 92 -222 62 -63 128 -91 220 -92 39 0 75 3 79 6 11 12 -5 55 -32
87 -16 19 -44 36 -75 45 -68 20 -103 48 -128 99 -27 56 -27 102 2 157 52 105
177 129 268 53 39 -34 59 -79 59 -137 0 -56 14 -93 48 -128 34 -36 48 -35 69
5 14 24 18 55 18 127 0 84 -3 101 -27 146 -32 61 -94 119 -156 146 -50 22
-149 32 -197 19z"/>
<path d="M915 1038 c-89 -32 -129 -96 -123 -198 7 -125 78 -180 235 -180 97 0
123 -12 123 -58 0 -44 -32 -52 -202 -52 -157 0 -158 0 -158 -22 0 -41 36 -85
84 -103 60 -23 264 -18 312 8 102 53 136 198 67 285 -48 61 -102 82 -210 82
-84 0 -93 2 -107 22 -20 28 -20 39 -2 64 12 16 31 20 120 24 94 5 107 8 132
30 25 24 54 77 54 100 0 14 -285 12 -325 -2z"/>
<path d="M1305 1031 c-41 -19 -75 -64 -75 -100 0 -19 7 -20 103 -23 l102 -3 3
-247 c1 -137 5 -248 9 -248 4 0 25 9 47 20 68 33 70 40 76 270 l5 205 60 5
c33 3 70 11 82 18 34 19 63 62 63 93 l0 29 -217 0 c-190 0 -223 -3 -258 -19z"/>
<path d="M1810 968 c1 -40 7 -86 15 -103 12 -28 13 -23 14 73 1 84 -2 102 -14
102 -12 0 -15 -15 -15 -72z"/>
<path d="M1810 667 c0 -115 3 -148 18 -176 19 -39 54 -66 95 -75 l27 -6 0 163
0 163 -43 11 c-23 7 -55 23 -70 37 l-27 25 0 -142z"/>
<path d="M432 667 l-22 -13 35 -34 35 -34 0 47 c0 50 -8 56 -48 34z"/>
<path d="M174 275 c-9 -21 3 -45 21 -45 10 0 15 10 15 30 0 32 -26 43 -36 15z
m26 -15 c0 -11 -4 -20 -10 -20 -5 0 -10 9 -10 20 0 11 5 20 10 20 6 0 10 -9
10 -20z"/>
<path d="M252 260 c0 -19 2 -27 5 -17 2 9 2 25 0 35 -3 9 -5 1 -5 -18z"/>
<path d="M279 262 c-3 -20 -2 -29 4 -23 5 5 7 19 5 32 -3 20 -5 19 -9 -9z"/>
<path d="M331 267 c-6 -16 -11 -29 -11 -31 0 -1 9 -2 20 -2 21 0 26 21 10 46
-7 11 -11 9 -19 -13z"/>
<path d="M402 260 c0 -19 2 -27 5 -17 2 9 2 25 0 35 -3 9 -5 1 -5 -18z"/>
<path d="M510 260 c0 -16 4 -30 9 -30 4 0 6 11 3 25 -2 14 0 25 6 25 6 0 13
-12 15 -27 4 -26 4 -26 6 5 1 26 -3 32 -19 32 -16 0 -20 -7 -20 -30z"/>
<path d="M596 275 c-11 -29 -7 -41 14 -41 15 0 19 5 14 21 -9 30 -21 38 -28
20z"/>
<path d="M660 260 c0 -16 4 -30 9 -30 4 0 6 11 3 25 -2 14 0 25 6 25 6 0 13
-12 15 -27 4 -26 4 -26 6 5 1 26 -3 32 -19 32 -16 0 -20 -7 -20 -30z"/>
<path d="M742 260 c0 -19 2 -27 5 -17 2 9 2 25 0 35 -3 9 -5 1 -5 -18z"/>
<path d="M850 260 c0 -16 4 -30 8 -30 4 0 8 14 7 30 0 17 -3 30 -7 30 -5 0 -8
-13 -8 -30z"/>
<path d="M921 260 c0 -33 1 -34 10 -11 6 16 6 28 -1 35 -7 7 -10 -1 -9 -24z"/>
<path d="M952 270 c-14 -23 -16 -33 -3 -26 5 4 12 0 14 -6 3 -7 6 2 6 20 1 38
0 39 -17 12z"/>
<path d="M1061 274 c0 -11 3 -14 6 -6 3 7 2 16 -1 19 -3 4 -6 -2 -5 -13z"/>
<path d="M1131 258 c2 -31 2 -31 6 -5 2 15 9 27 15 27 6 0 8 -11 6 -25 -3 -14
-1 -25 3 -25 5 0 9 14 9 30 0 23 -4 30 -20 30 -16 0 -20 -6 -19 -32z"/>
<path d="M1212 260 c0 -19 2 -27 5 -17 2 9 2 25 0 35 -3 9 -5 1 -5 -18z"/>
<path d="M1270 260 c0 -16 4 -30 8 -30 5 0 7 14 4 30 -2 17 -6 30 -8 30 -2 0
-4 -13 -4 -30z"/>
<path d="M1302 260 c0 -19 2 -27 5 -17 2 9 2 25 0 35 -3 9 -5 1 -5 -18z"/>
<path d="M1352 265 c-2 -38 12 -64 21 -40 4 9 3 13 -2 10 -6 -3 -12 9 -14 27
l-4 33 -1 -30z"/>
<path d="M1421 258 c2 -31 2 -31 6 -5 2 15 9 27 15 27 6 0 8 -11 6 -25 -3 -14
-1 -25 3 -25 5 0 9 14 9 30 0 23 -4 30 -20 30 -16 0 -20 -6 -19 -32z"/>
<path d="M1502 260 c0 -19 2 -27 5 -17 2 9 2 25 0 35 -3 9 -5 1 -5 -18z"/>
<path d="M1565 281 c-3 -5 0 -13 6 -17 7 -4 9 -3 5 4 -3 6 2 13 11 15 16 4 16
5 1 6 -9 0 -19 -3 -23 -8z"/>
<path d="M1680 260 c0 -16 4 -30 9 -30 4 0 6 11 3 25 -2 14 0 25 6 25 6 0 13
-12 15 -27 4 -26 4 -26 6 5 1 26 -3 32 -19 32 -16 0 -20 -7 -20 -30z"/>
<path d="M1762 260 c0 -19 2 -27 5 -17 2 9 2 25 0 35 -3 9 -5 1 -5 -18z"/>
<path d="M1880 260 c0 -16 2 -30 4 -30 2 0 6 14 8 30 3 17 1 30 -4 30 -4 0 -8
-13 -8 -30z"/>
<path d="M1942 260 c0 -19 2 -27 5 -17 2 9 2 25 0 35 -3 9 -5 1 -5 -18z"/>
<path d="M1081 244 c0 -11 3 -14 6 -6 3 7 2 16 -1 19 -3 4 -6 -2 -5 -13z"/>
<path d="M1591 244 c0 -11 3 -14 6 -6 3 7 2 16 -1 19 -3 4 -6 -2 -5 -13z"/>
</g>
</svg>
